<svg width="40" height="40" viewBox="0 0 40 40" fill="none" xmlns="http://www.w3.org/2000/svg">
<path d="M40 20C40 31.0457 31.0457 40 20 40C8.9543 40 0 31.0457 0 20C0 8.9543 8.9543 0 20 0C31.0457 0 40 8.9543 40 20Z" fill="#0657B5"/>
<path d="M19.7891 17C20.3068 17 20.7266 16.5803 20.7266 16.0625C20.7266 15.5447 20.3068 15.125 19.7891 15.125C19.2713 15.125 18.8516 15.5447 18.8516 16.0625C18.8516 16.5803 19.2713 17 19.7891 17Z" fill="#F9FCFF"/>
<path d="M20.75 24.125V18.125H18.5V18.5H19.25V24.125H18.5V24.5H21.5V24.125H20.75Z" fill="#F9FCFF"/>
<path d="M20 10.25C14.6141 10.25 10.25 14.6141 10.25 20C10.25 25.3859 14.6141 29.75 20 29.75C25.3859 29.75 29.75 25.3859 29.75 20C29.75 14.6141 25.3859 10.25 20 10.25ZM20 28.9391C15.0734 28.9391 11.0609 24.9312 11.0609 20C11.0609 15.0734 15.0688 11.0609 20 11.0609C24.9266 11.0609 28.9391 15.0688 28.9391 20C28.9391 24.9266 24.9266 28.9391 20 28.9391Z" fill="#F9FCFF"/>
</svg>
