<svg width="40" height="40" viewBox="0 0 40 40" fill="none" xmlns="http://www.w3.org/2000/svg">
<path d="M40 20C40 31.0457 31.0457 40 20 40C8.9543 40 0 31.0457 0 20C0 8.9543 8.9543 0 20 0C31.0457 0 40 8.9543 40 20Z" fill="#0657B5"/>
<g clip-path="url(#clip0_343_6557)">
<path d="M30.5 18.5H28.8484C28.536 16.6647 27.6611 14.9718 26.3446 13.6554C25.0282 12.3389 23.3353 11.464 21.5 11.1516V9.5C21.5 9.10218 21.342 8.72064 21.0607 8.43934C20.7794 8.15804 20.3978 8 20 8C19.6022 8 19.2206 8.15804 18.9393 8.43934C18.658 8.72064 18.5 9.10218 18.5 9.5V11.1516C16.6647 11.464 14.9718 12.3389 13.6554 13.6554C12.3389 14.9718 11.464 16.6647 11.1516 18.5H9.5C9.10218 18.5 8.72064 18.658 8.43934 18.9393C8.15804 19.2206 8 19.6022 8 20C8 20.3978 8.15804 20.7794 8.43934 21.0607C8.72064 21.342 9.10218 21.5 9.5 21.5H11.1516C11.464 23.3353 12.3389 25.0282 13.6554 26.3446C14.9718 27.6611 16.6647 28.536 18.5 28.8484V30.5C18.5 30.8978 18.658 31.2794 18.9393 31.5607C19.2206 31.842 19.6022 32 20 32C20.3978 32 20.7794 31.842 21.0607 31.5607C21.342 31.2794 21.5 30.8978 21.5 30.5V28.8484C23.3353 28.536 25.0282 27.6611 26.3446 26.3446C27.6611 25.0282 28.536 23.3353 28.8484 21.5H30.5C30.8978 21.5 31.2794 21.342 31.5607 21.0607C31.842 20.7794 32 20.3978 32 20C32 19.6022 31.842 19.2206 31.5607 18.9393C31.2794 18.658 30.8978 18.5 30.5 18.5ZM20 26C18.8133 26 17.6533 25.6481 16.6666 24.9888C15.6799 24.3295 14.9108 23.3925 14.4567 22.2961C14.0026 21.1997 13.8838 19.9933 14.1153 18.8295C14.3468 17.6656 14.9182 16.5965 15.7574 15.7574C16.5965 14.9182 17.6656 14.3468 18.8295 14.1153C19.9933 13.8838 21.1997 14.0026 22.2961 14.4567C23.3925 14.9108 24.3295 15.6799 24.9888 16.6666C25.6481 17.6533 26 18.8133 26 20C25.9984 21.5908 25.3658 23.116 24.2409 24.2409C23.116 25.3658 21.5908 25.9984 20 26Z" fill="#F9FCFF"/>
<path d="M20 17C19.4067 17 18.8266 17.1759 18.3333 17.5056C17.8399 17.8352 17.4554 18.3038 17.2284 18.8519C17.0013 19.4001 16.9419 20.0033 17.0576 20.5853C17.1734 21.1672 17.4591 21.7018 17.8787 22.1213C18.2982 22.5409 18.8328 22.8266 19.4147 22.9424C19.9967 23.0581 20.5999 22.9987 21.1481 22.7716C21.6962 22.5446 22.1648 22.1601 22.4944 21.6667C22.8241 21.1734 23 20.5933 23 20C22.999 19.2047 22.6826 18.4422 22.1202 17.8798C21.5578 17.3174 20.7953 17.001 20 17Z" fill="#F9FCFF"/>
</g>
<defs>
<clipPath id="clip0_343_6557">
<rect width="24" height="24" fill="white" transform="translate(8 8)"/>
</clipPath>
</defs>
</svg>
